# xmcd
#
# Track frame offsets:
#	150
#	23881
#	36386
#	69684
#	78395
#	101659
#	110054
#	130480
#	145941
#
# Disc length: 2237 seconds
#
# Revision: 1
# Processed by: cddbd v1.5.1PL0 Copyright (c) Steve Scherf et al.
# Submitted via: CDex 1.50Beta5
#
DISCID=8408bb09
DTITLE=すたじお風見猫 - 「マリア様が見てる」 O・S・T
DYEAR=1900
DGENRE=Soundtrack
TTITLE0=駆け足の通学路
TTITLE1=出会い(再収録)
TTITLE2=ごきげんよう!!
TTITLE3=Tea time
TTITLE4=憧れ
TTITLE5=波の向こうに
TTITLE6=LAST DANCE
TTITLE7=Hallelujah!
TTITLE8=Because I Love You.
EXTD=
EXTT0=
EXTT1=
EXTT2=
EXTT3=
EXTT4=
EXTT5=
EXTT6=
EXTT7=
EXTT8=
PLAYORDER=
